<svg width="27" height="30" viewBox="0 0 27 30" fill="none" xmlns="http://www.w3.org/2000/svg">
<path d="M10.5699 12.4268H10.5698C10.1659 12.4268 9.77863 12.5866 9.49308 12.8709C9.20754 13.1552 9.04713 13.5409 9.04714 13.943C9.04715 14.3451 9.20759 14.7307 9.49315 15.015C9.77871 15.2994 10.166 15.4591 10.5699 15.4591C10.9737 15.4591 11.361 15.2994 11.6466 15.015C11.9321 14.7307 12.0925 14.3451 12.0926 13.943C12.0926 13.5409 11.9322 13.1552 11.6466 12.8709C11.3611 12.5866 10.9738 12.4268 10.5699 12.4268ZM15.9995 12.4268C15.667 12.3987 15.3337 12.4713 15.0433 12.635C14.7528 12.7987 14.5188 13.0458 14.3718 13.3442C14.2249 13.6425 14.1718 13.978 14.2195 14.3069C14.2672 14.6358 14.4136 14.9426 14.6394 15.1873C14.8652 15.432 15.1599 15.603 15.485 15.6782C15.8101 15.7533 16.1504 15.7289 16.4613 15.6082C16.7722 15.4876 17.0393 15.2763 17.2277 15.0019C17.416 14.7276 17.5167 14.4031 17.5167 14.0708C17.5256 13.8636 17.4934 13.6567 17.4219 13.462C17.3505 13.2672 17.2412 13.0884 17.1003 12.9357C16.9594 12.783 16.7896 12.6595 16.6007 12.5722C16.4119 12.4849 16.2076 12.4355 15.9995 12.4268ZM23.2289 7.62939e-06H3.29587C2.89441 0.000951989 2.49708 0.0806252 2.12655 0.234477C1.75602 0.38833 1.41955 0.613347 1.13637 0.896681C0.853183 1.18002 0.628824 1.51612 0.476103 1.88579C0.323382 2.25546 0.24529 2.65147 0.246286 3.0512V23.0763C0.245307 23.476 0.323411 23.872 0.47614 24.2416C0.628868 24.6113 0.853228 24.9474 1.13641 25.2307C1.41959 25.514 1.75605 25.739 2.12657 25.8929C2.49709 26.0467 2.89442 26.1264 3.29587 26.1274H20.1646L19.3762 23.3872L21.2802 25.1498L23.0802 26.8086L26.2785 29.6229V3.0512C26.2795 2.65147 26.2014 2.25546 26.0487 1.88579C25.8959 1.51612 25.6716 1.18002 25.3884 0.896681C25.1052 0.613347 24.7687 0.38833 24.3982 0.234477C24.0277 0.0806252 23.6304 0.000951989 23.2289 7.62939e-06ZM17.487 19.3437V19.3438C17.487 19.3438 16.9514 18.7069 16.5051 18.144C17.5834 17.8912 18.5372 17.2669 19.1977 16.3814C18.6625 16.7362 18.0886 17.0293 17.487 17.2552C16.795 17.5494 16.0712 17.7631 15.33 17.8922C14.0561 18.1257 12.7495 18.1207 11.4774 17.8774C10.7305 17.7319 9.99849 17.5187 9.29054 17.2406C8.91742 17.0977 8.55459 16.9294 8.20463 16.737C8.15996 16.7073 8.11547 16.6925 8.07081 16.6629C8.04843 16.6518 8.02826 16.6368 8.01131 16.6185C7.74367 16.4704 7.59467 16.3667 7.59467 16.3667C8.23136 17.2335 9.15216 17.8517 10.198 18.1144C9.75184 18.6773 9.20139 19.3437 9.20139 19.3437C8.31776 19.3674 7.44183 19.1745 6.65068 18.7819C5.85954 18.3893 5.17744 17.8091 4.66443 17.0924C4.71273 14.0897 5.44513 11.1371 6.8064 8.4573C8.0044 7.52047 9.46494 6.97706 10.9864 6.90209L11.135 7.0799C9.70365 7.43256 8.36792 8.09503 7.22291 9.02015C7.22291 9.02015 7.55023 8.84244 8.10052 8.59063C9.16984 8.10459 10.3095 7.7897 11.4775 7.65758C11.5608 7.64032 11.6454 7.63038 11.7304 7.62787C12.7273 7.49858 13.736 7.48866 14.7352 7.59834C16.3066 7.77698 17.8276 8.25999 19.2127 9.02015C18.1258 8.13917 16.8633 7.49802 15.5089 7.1391L15.7171 6.90224C17.2385 6.97714 18.6991 7.52056 19.8971 8.45744C21.2584 11.1372 21.9909 14.0897 22.0392 17.0924C21.522 17.8085 20.8369 18.3879 20.0436 18.7803C19.2502 19.1726 18.3726 19.3661 17.487 19.3437Z" fill="#E0E0E0"/>
</svg>
