<svg width="85" height="84" viewBox="0 0 85 84" fill="none" xmlns="http://www.w3.org/2000/svg">
<path fill-rule="evenodd" clip-rule="evenodd" d="M11.7029 0.395699C11.243 0.790905 11.2424 0.794516 11.1894 3.1738L11.1365 5.55636L8.77267 5.60921C5.58082 5.68076 5.68077 5.58081 5.60921 8.77267L5.55636 11.1365L3.1738 11.1894C0.794518 11.2424 0.790907 11.243 0.3957 11.7029L1.60063e-06 12.1634V30.7109C1.60063e-06 49.8471 -0.00557854 49.6778 0.642212 50.1751C0.845067 50.3309 8.75166 50.3762 36.3849 50.3803L71.8672 50.3855L72.3277 49.9898C72.7879 49.5945 72.7882 49.592 72.8414 47.1998L72.8946 44.8054H75.171C77.34 44.8054 77.4692 44.7867 77.9079 44.4097C78.3681 44.0143 78.3684 44.0119 78.4216 41.6196L78.4747 39.2252H80.773H83.0712L83.5509 38.7455L84.0306 38.2658V19.6126V0.959459L83.5509 0.47973L83.0712 0H47.6173H12.1634L11.7029 0.395699ZM81.2405 19.6126V36.4352H79.848H78.4556L78.4119 21.4226L78.3684 6.4098L77.9945 6.03609L77.6208 5.66222L45.7855 5.61988L13.9504 5.5777V4.18381V2.79008H47.5955H81.2405V19.6126ZM75.6604 25.1928V42.0153H74.2653H72.8703V27.3211C72.8703 11.1232 72.9064 11.7049 71.8787 11.3466C71.4871 11.21 62.9273 11.1603 39.8573 11.1603H8.37024V9.76528V8.37024H42.0153H75.6604V25.1928ZM70.04 30.814L70.0817 47.5955H36.436H2.79008V30.7726V13.9496L36.3941 13.9911L69.9982 14.0325L70.04 30.814ZM13.6803 16.854C13.0814 16.9712 12.7635 17.5076 12.5435 18.7725C12.2883 20.2405 11.7334 21.3791 10.8872 22.1721C9.7748 23.2144 9.04134 23.5253 6.87459 23.8731C6.54848 23.9254 6.14228 24.1222 5.97192 24.3103C5.68241 24.6302 5.6591 25.038 5.61512 30.5773C5.58311 34.6236 5.62546 36.6408 5.74904 36.9392C5.98013 37.497 6.39519 37.703 7.68979 37.9027C9.02033 38.108 9.98717 38.5791 10.9013 39.4675C11.8555 40.3949 12.2704 41.2462 12.5056 42.7589C12.651 43.6938 12.7984 44.101 13.1009 44.4035L13.5028 44.8054H36.3664H59.2298L59.6724 44.4246C60.0256 44.1208 60.1436 43.831 60.2568 42.9886C60.6447 40.1016 62.5872 38.197 65.506 37.8418C66.1889 37.7588 66.5314 37.6214 66.8189 37.3155L67.2081 36.9016L67.2599 31.2113C67.2947 27.392 67.2522 25.319 67.1306 24.9065C66.9143 24.1732 66.4285 23.8854 65.1666 23.7428C62.7357 23.4678 60.5876 21.3535 60.3031 18.9561C60.1541 17.7001 59.9137 17.2199 59.3072 16.9665C58.8559 16.7779 55.0593 16.7442 36.3994 16.7628C24.0976 16.7751 13.8739 16.8161 13.6803 16.854ZM57.8339 20.6794C58.7225 23.4078 60.6232 25.3083 63.3512 26.1965L64.418 26.5438L64.4617 30.8163L64.5055 35.0885L63.3881 35.4279C62.0005 35.8494 60.5446 36.777 59.5734 37.8581C58.7653 38.7578 57.8634 40.4534 57.6839 41.4105L57.5703 42.0153H36.4299H15.2895L15.1787 41.4819C14.9936 40.5911 14.0036 38.6966 13.2978 37.883C12.3891 36.8351 10.8521 35.844 9.49776 35.4327L8.37024 35.0902V30.7752V26.4603L8.9857 26.3466C10.6826 26.0332 13.0261 24.3515 14.0876 22.6853C14.3591 22.2591 14.7418 21.4304 14.9378 20.8439C15.1339 20.2575 15.3287 19.7216 15.3709 19.6535C15.4131 19.5852 24.9064 19.5481 36.4672 19.5709L57.4866 19.6126L57.8339 20.6794ZM35.0647 23.9607C31.5143 24.5973 28.9384 28.2978 29.5361 31.9032C29.9732 34.5399 31.8135 36.6385 34.4427 37.4987C35.8158 37.9479 37.8505 37.7975 39.2484 37.1433C43.6895 35.0651 44.7698 29.4332 41.3923 25.9656C39.789 24.3196 37.3583 23.5494 35.0647 23.9607ZM38.4207 27.1869C39.8197 27.9482 40.5408 29.1837 40.5346 30.8087C40.5238 33.6703 37.8676 35.5971 35.0834 34.7629C34.1539 34.4844 32.9116 33.3096 32.5517 32.3685C31.1434 28.6871 34.97 25.3086 38.4207 27.1869ZM64.903 55.0556C64.5042 55.4543 64.5001 55.4896 64.5001 58.4978V61.5373L53.0151 61.5826L41.5303 61.6279L41.0752 62.0827L40.6203 62.5377L40.5712 68.1902C40.5392 71.8928 40.5837 74.0709 40.7004 74.5043C41.0263 75.7149 40.4384 75.6604 53.1674 75.6604H64.5001V79.3986C64.5001 83.5826 64.544 83.7675 65.5852 83.9628C66.0494 84.0498 66.2746 83.994 66.6883 83.6894C66.9742 83.4788 70.9465 80.1902 75.5155 76.3814C84.2594 69.092 84.2689 69.0825 83.8593 68.0935C83.7258 67.7712 81.1614 65.7535 75.263 61.3292C70.6395 57.8615 66.7008 54.9406 66.5099 54.8385C65.9514 54.5395 65.3358 54.6227 64.903 55.0556ZM73.9781 63.9038C77.4309 66.4902 80.2558 68.6414 80.2558 68.6842C80.2558 68.7741 67.4968 79.4352 67.3889 79.4352C67.3496 79.4352 67.2928 78.1362 67.2627 76.5486L67.2081 73.6619L66.7476 73.2662L66.287 72.8703H54.8897H43.4924V68.6894V64.5088L54.8953 64.4633L66.298 64.418L66.7531 63.9632C67.2004 63.516 67.2091 63.4695 67.265 61.2073C67.3072 59.5002 67.3707 58.9442 67.5112 59.0535C67.6153 59.1347 70.5253 61.3172 73.9781 63.9038ZM0.874609 61.7784C0.58838 61.9066 0.274414 62.1603 0.17709 62.3423C0.0597421 62.5616 1.60063e-06 64.6927 1.60063e-06 68.6652V74.6573L0.396029 75.1178L0.79222 75.5783H4.15771C7.49366 75.5783 7.52698 75.5749 7.94664 75.1805L8.37024 74.7825V68.6657V62.549L7.97438 62.0885L7.57868 61.6279L4.48678 61.5867C2.09896 61.5549 1.27654 61.5985 0.874609 61.7784ZM16.3021 61.7852C16.0159 61.9096 15.7019 62.1603 15.6046 62.3423C15.4872 62.5616 15.4275 64.6927 15.4275 68.6652V74.6573L15.8235 75.1178L16.2197 75.5783H19.6126H23.0055L23.4017 75.1178L23.7977 74.6573V68.6652C23.7977 64.6868 23.7382 62.5618 23.6205 62.3419C23.2737 61.6941 22.5125 61.5454 19.5768 61.5523C17.6087 61.5569 16.674 61.6233 16.3021 61.7852ZM30.4058 61.7225C29.381 62.0308 29.3608 62.1761 29.413 68.848C29.46 74.8239 29.4604 74.8314 29.8333 75.2046C30.1893 75.5608 30.3428 75.5808 33.1133 75.6303C36.4063 75.6894 36.9589 75.6251 37.4205 75.1294C37.7358 74.791 37.7481 74.547 37.7481 68.6008V62.4238L37.325 62.0258C36.9123 61.6378 36.8286 61.6271 33.9195 61.5953C32.2791 61.5774 30.6979 61.6345 30.4058 61.7225ZM5.58016 68.6852V72.8703H4.18512H2.79008V68.6852V64.5001H4.18512H5.58016V68.6852ZM21.0077 68.6852V72.8703H19.6126H18.2176V68.6852V64.5001H19.6126H21.0077V68.6852ZM34.9581 68.6852V72.8703H33.563H32.168V68.6852V64.5001H33.563H34.9581V68.6852Z" fill="#E4E4E4"/>
</svg>
