<svg width="55" height="69" viewBox="0 0 55 69" fill="none" xmlns="http://www.w3.org/2000/svg">
<path d="M27.5 37.95C26.4534 37.9377 25.4283 38.2475 24.5625 38.8377C23.6966 39.4279 23.0318 40.2701 22.6573 41.251C22.2828 42.2319 22.2168 43.3044 22.468 44.3241C22.7192 45.3438 23.2757 46.2618 24.0625 46.9545V51.75C24.0625 52.665 24.4247 53.5425 25.0693 54.1895C25.714 54.8365 26.5883 55.2 27.5 55.2C28.4117 55.2 29.286 54.8365 29.9307 54.1895C30.5753 53.5425 30.9375 52.665 30.9375 51.75V46.9545C31.7243 46.2618 32.2808 45.3438 32.532 44.3241C32.7832 43.3044 32.7172 42.2319 32.3427 41.251C31.9682 40.2701 31.3034 39.4279 30.4375 38.8377C29.5717 38.2475 28.5466 37.9377 27.5 37.95ZM44.6875 24.15V17.25C44.6875 12.675 42.8767 8.28741 39.6534 5.05241C36.4301 1.81741 32.0584 0 27.5 0C22.9416 0 18.5699 1.81741 15.3466 5.05241C12.1233 8.28741 10.3125 12.675 10.3125 17.25V24.15C7.57746 24.15 4.95443 25.2404 3.02046 27.1814C1.08649 29.1224 0 31.755 0 34.5V58.65C0 61.395 1.08649 64.0276 3.02046 65.9686C4.95443 67.9096 7.57746 69 10.3125 69H44.6875C47.4225 69 50.0456 67.9096 51.9795 65.9686C53.9135 64.0276 55 61.395 55 58.65V34.5C55 31.755 53.9135 29.1224 51.9795 27.1814C50.0456 25.2404 47.4225 24.15 44.6875 24.15ZM17.1875 17.25C17.1875 14.505 18.274 11.8724 20.208 9.93145C22.1419 7.99044 24.765 6.9 27.5 6.9C30.235 6.9 32.8581 7.99044 34.792 9.93145C36.726 11.8724 37.8125 14.505 37.8125 17.25V24.15H17.1875V17.25ZM48.125 58.65C48.125 59.565 47.7628 60.4425 47.1182 61.0895C46.4735 61.7365 45.5992 62.1 44.6875 62.1H10.3125C9.40082 62.1 8.52648 61.7365 7.88182 61.0895C7.23716 60.4425 6.875 59.565 6.875 58.65V34.5C6.875 33.585 7.23716 32.7075 7.88182 32.0605C8.52648 31.4135 9.40082 31.05 10.3125 31.05H44.6875C45.5992 31.05 46.4735 31.4135 47.1182 32.0605C47.7628 32.7075 48.125 33.585 48.125 34.5V58.65Z" fill="#E4E4E4"/>
</svg>
