<svg width="266" height="60" viewBox="0 0 266 60" fill="none" xmlns="http://www.w3.org/2000/svg">
<line y1="59.5" x2="124" y2="59.5" stroke="#BA68C8"/>
<line x1="0.5" y1="1" x2="0.500003" y2="60" stroke="#DADADA"/>
<line x1="123.5" y1="1" x2="123.5" y2="60" stroke="#BA68C8"/>
<line x1="0.214825" y1="0.548502" x2="124.215" y2="59.5485" stroke="#DADADA"/>
<line x1="0.786747" y1="59.5478" x2="123.787" y2="1.54776" stroke="#BA68C8"/>
<path d="M157.903 45H148.636V14.9707H158.314C161.227 14.9707 163.719 15.5718 165.792 16.7742C167.864 17.9668 169.453 19.6823 170.557 21.9208C171.662 24.1496 172.214 26.8182 172.214 29.9267C172.214 33.0547 171.657 35.7478 170.543 38.0059C169.428 40.2542 167.805 41.9844 165.674 43.1965C163.544 44.3988 160.953 45 157.903 45ZM152.273 41.7742H157.669C160.152 41.7742 162.209 41.2952 163.842 40.3372C165.474 39.3793 166.691 38.0156 167.493 36.2463C168.294 34.477 168.695 32.3705 168.695 29.9267C168.695 27.5024 168.299 25.4154 167.507 23.6657C166.716 21.9062 165.533 20.5572 163.959 19.6188C162.385 18.6706 160.425 18.1965 158.079 18.1965H152.273V41.7742ZM187.287 45.4692C185.117 45.4692 183.245 44.9902 181.672 44.0323C180.108 43.0645 178.9 41.7155 178.05 39.9853C177.209 38.2454 176.789 36.2219 176.789 33.915C176.789 31.608 177.209 29.5748 178.05 27.8152C178.9 26.0459 180.083 24.6676 181.598 23.6803C183.123 22.6833 184.902 22.1847 186.935 22.1847C188.109 22.1847 189.267 22.3803 190.411 22.7713C191.554 23.1623 192.595 23.7977 193.534 24.6774C194.472 25.5474 195.22 26.7009 195.777 28.1378C196.334 29.5748 196.613 31.3441 196.613 33.4457V34.912H179.252V31.9208H193.094C193.094 30.65 192.84 29.5161 192.331 28.5191C191.833 27.522 191.119 26.7351 190.191 26.1584C189.272 25.5816 188.187 25.2933 186.935 25.2933C185.557 25.2933 184.365 25.6354 183.358 26.3196C182.361 26.9941 181.593 27.8739 181.056 28.9589C180.518 30.044 180.249 31.2072 180.249 32.4487V34.4428C180.249 36.1437 180.543 37.5855 181.129 38.7683C181.725 39.9413 182.551 40.8358 183.607 41.4516C184.663 42.0577 185.89 42.3607 187.287 42.3607C188.196 42.3607 189.018 42.2336 189.751 41.9795C190.494 41.7155 191.134 41.3245 191.672 40.8065C192.209 40.2786 192.625 39.6237 192.918 38.8416L196.261 39.7801C195.909 40.914 195.318 41.911 194.487 42.7713C193.656 43.6217 192.63 44.2864 191.408 44.7654C190.186 45.2346 188.812 45.4692 187.287 45.4692ZM205.704 45L197.493 14.9707H201.188L207.463 39.4282H207.757L214.15 14.9707H218.255L224.648 39.4282H224.941L231.217 14.9707H234.912L226.701 45H222.947L216.32 21.0704H216.085L209.457 45H205.704ZM238.974 45V22.478H242.434V45H238.974ZM240.733 18.7243C240.059 18.7243 239.477 18.4946 238.988 18.0352C238.509 17.5758 238.27 17.0235 238.27 16.3783C238.27 15.7331 238.509 15.1808 238.988 14.7214C239.477 14.262 240.059 14.0323 240.733 14.0323C241.408 14.0323 241.984 14.262 242.463 14.7214C242.952 15.1808 243.196 15.7331 243.196 16.3783C243.196 17.0235 242.952 17.5758 242.463 18.0352C241.984 18.4946 241.408 18.7243 240.733 18.7243ZM252.232 14.9707V45H248.772V14.9707H252.232ZM262.031 14.9707V45H258.57V14.9707H262.031Z" fill="white"/>
</svg>
