<svg width="31" height="25" viewBox="0 0 31 25" fill="none" xmlns="http://www.w3.org/2000/svg">
<path d="M30.1118 3.59674C28.9984 4.08217 27.8211 4.40308 26.6163 4.54947C27.8873 3.78627 28.8399 2.58562 29.2971 1.17025C28.1027 1.88489 26.7951 2.3884 25.4313 2.65889C24.5198 1.66533 23.3059 1.00397 21.98 0.778518C20.6541 0.553071 19.2913 0.776296 18.1053 1.41318C16.9193 2.05007 15.9771 3.06459 15.4266 4.29764C14.876 5.53069 14.7483 6.91252 15.0633 8.22641C12.6482 8.10363 10.2858 7.4716 8.1296 6.37136C5.97337 5.27111 4.07155 3.72728 2.54768 1.84014C2.01319 2.77823 1.73234 3.84061 1.73305 4.92163C1.73116 5.92554 1.97628 6.91434 2.4466 7.80001C2.91692 8.68567 3.59784 9.44071 4.42873 9.99789C3.46299 9.97148 2.51789 9.71103 1.67381 9.23868V9.31311C1.68104 10.7197 2.17146 12.0806 3.0621 13.1657C3.95274 14.2507 5.18894 14.9932 6.56158 15.2677C6.03319 15.4293 5.4846 15.5145 4.93232 15.5207C4.55002 15.5163 4.16868 15.4814 3.79184 15.4165C4.18273 16.6265 4.93917 17.684 5.9559 18.4417C6.97264 19.1994 8.19909 19.6198 9.46462 19.6443C7.32763 21.3343 4.68924 22.2566 1.97003 22.2643C1.47494 22.2659 0.98024 22.2361 0.488892 22.175C3.26519 23.9766 6.50057 24.933 9.80528 24.9289C12.0858 24.9528 14.3481 24.5196 16.4602 23.6548C18.5723 22.79 20.4918 21.5109 22.1065 19.8921C23.7212 18.2734 24.9988 16.3475 25.8647 14.227C26.7305 12.1064 27.1673 9.83373 27.1495 7.54163C27.1495 7.28856 27.1495 7.02061 27.1495 6.75265C28.3117 5.88152 29.3141 4.81359 30.1118 3.59674Z" fill="#D3D3D3"/>
</svg>
