<svg width="33" height="24" viewBox="0 0 33 24" fill="none" xmlns="http://www.w3.org/2000/svg">
<path d="M32.3471 8.6021C32.4177 6.52556 31.9709 4.46455 31.0484 2.61045C30.4224 1.84966 29.5537 1.33625 28.5936 1.15968C24.6224 0.793398 20.6348 0.643272 16.6479 0.709943C12.6755 0.640246 8.70229 0.785528 4.74509 1.14517C3.96273 1.28984 3.23871 1.66287 2.66138 2.21874C1.3769 3.42287 1.23418 5.48296 1.09146 7.22388C0.88439 10.354 0.88439 13.4947 1.09146 16.6248C1.13275 17.6047 1.27627 18.5773 1.51962 19.5264C1.6917 20.2591 2.03987 20.937 2.53293 21.4994C3.11418 22.0847 3.85506 22.479 4.65946 22.631C7.73638 23.0171 10.8367 23.1771 13.9362 23.1098C18.9314 23.1823 23.3129 23.1098 28.4937 22.7035C29.3178 22.5609 30.0796 22.1661 30.6773 21.5719C31.0768 21.1656 31.3753 20.6683 31.5479 20.1212C32.0583 18.5291 32.309 16.8629 32.29 15.1886C32.3471 14.3761 32.3471 9.47256 32.3471 8.6021ZM13.4225 16.059V7.0788L21.8715 11.5907C19.5023 12.9254 16.3768 14.4342 13.4225 16.059Z" fill="#D3D3D3"/>
</svg>
