<svg width="32" height="39" viewBox="0 0 32 39" fill="none" xmlns="http://www.w3.org/2000/svg">
<path d="M15.6 21.45C15.0063 21.4431 14.4248 21.6182 13.9336 21.9517C13.4425 22.2853 13.0653 22.7614 12.8529 23.3158C12.6404 23.8702 12.603 24.4764 12.7455 25.0527C12.888 25.6291 13.2037 26.148 13.65 26.5395V29.25C13.65 29.7672 13.8554 30.2632 14.2211 30.6289C14.5868 30.9946 15.0828 31.2 15.6 31.2C16.1172 31.2 16.6132 30.9946 16.9789 30.6289C17.3446 30.2632 17.55 29.7672 17.55 29.25V26.5395C17.9963 26.148 18.312 25.6291 18.4545 25.0527C18.597 24.4764 18.5596 23.8702 18.3471 23.3158C18.1347 22.7614 17.7575 22.2853 17.2664 21.9517C16.7752 21.6182 16.1937 21.4431 15.6 21.45ZM25.35 13.65V9.75C25.35 7.16414 24.3228 4.68419 22.4943 2.85571C20.6658 1.02723 18.1859 0 15.6 0C13.0141 0 10.5342 1.02723 8.70571 2.85571C6.87723 4.68419 5.85 7.16414 5.85 9.75V13.65C4.29848 13.65 2.81051 14.2663 1.71343 15.3634C0.616338 16.4605 0 17.9485 0 19.5V33.15C0 34.7015 0.616338 36.1895 1.71343 37.2866C2.81051 38.3837 4.29848 39 5.85 39H25.35C26.9015 39 28.3895 38.3837 29.4866 37.2866C30.5837 36.1895 31.2 34.7015 31.2 33.15V19.5C31.2 17.9485 30.5837 16.4605 29.4866 15.3634C28.3895 14.2663 26.9015 13.65 25.35 13.65ZM9.75 9.75C9.75 8.19848 10.3663 6.71051 11.4634 5.61343C12.5605 4.51634 14.0485 3.9 15.6 3.9C17.1515 3.9 18.6395 4.51634 19.7366 5.61343C20.8337 6.71051 21.45 8.19848 21.45 9.75V13.65H9.75V9.75ZM27.3 33.15C27.3 33.6672 27.0946 34.1632 26.7289 34.5289C26.3632 34.8946 25.8672 35.1 25.35 35.1H5.85C5.33283 35.1 4.83684 34.8946 4.47114 34.5289C4.10545 34.1632 3.9 33.6672 3.9 33.15V19.5C3.9 18.9828 4.10545 18.4868 4.47114 18.1211C4.83684 17.7554 5.33283 17.55 5.85 17.55H25.35C25.8672 17.55 26.3632 17.7554 26.7289 18.1211C27.0946 18.4868 27.3 18.9828 27.3 19.5V33.15Z" fill="#979797"/>
</svg>
