<svg width="45" height="21" viewBox="0 0 45 21" fill="none" xmlns="http://www.w3.org/2000/svg">
<path d="M34.5 5.22018e-06C31.7538 -0.00273678 29.1167 1.07484 27.1582 3.00001H25.0837C24.564 2.10751 23.607 1.50001 22.5 1.50001C21.3923 1.50001 20.436 2.10751 19.9163 3.00001H17.8417C15.8833 1.07484 13.2462 -0.00273678 10.5 5.22018e-06C4.6995 5.22018e-06 0 4.70325 0 10.5C0 16.2968 4.6995 21 10.5 21C16.3005 21 21 16.2968 21 10.5H24C24 16.2968 28.6995 21 34.5 21C40.3005 21 45 16.2968 45 10.5C45 4.70325 40.3005 5.22018e-06 34.5 5.22018e-06ZM10.5 18C6.3645 18 3 14.6355 3 10.5C3 6.3645 6.3645 3.00001 10.5 3.00001C14.6355 3.00001 18 6.3645 18 10.5C18 14.6355 14.6355 18 10.5 18ZM34.5 18C30.3645 18 27 14.6355 27 10.5C27 6.3645 30.3645 3.00001 34.5 3.00001C38.6355 3.00001 42 6.3645 42 10.5C42 14.6355 38.6355 18 34.5 18Z" fill="#EA00C4"/>
</svg>
