<svg width="39" height="39" viewBox="0 0 39 39" fill="none" xmlns="http://www.w3.org/2000/svg">
<path d="M26.7412 20.8832C28.6624 19.3799 30.0647 17.3185 30.753 14.9858C31.4413 12.653 31.3814 10.1649 30.5816 7.86754C29.7818 5.57021 28.2819 3.57792 26.2906 2.16784C24.2992 0.757752 21.9155 0 19.4709 0C17.0264 0 14.6426 0.757752 12.6513 2.16784C10.6599 3.57792 9.16004 5.57021 8.36026 7.86754C7.56047 10.1649 7.50057 12.653 8.18888 14.9858C8.8772 17.3185 10.2795 19.3799 12.2007 20.8832C8.90869 22.1949 6.03628 24.3704 3.88972 27.1779C1.74315 29.9854 0.40289 33.3195 0.0118202 36.825C-0.0164875 37.0809 0.00616965 37.3399 0.0784974 37.5871C0.150825 37.8343 0.271407 38.065 0.433359 38.2658C0.760435 38.6715 1.23616 38.9314 1.75589 38.9882C2.27562 39.0451 2.79677 38.8943 3.20469 38.569C3.61262 38.2437 3.87391 37.7706 3.93108 37.2537C4.36138 33.4441 6.18796 29.9256 9.06182 27.3706C11.9357 24.8156 15.6553 23.4031 19.5101 23.4031C23.3649 23.4031 27.0846 24.8156 29.9584 27.3706C32.8323 29.9256 34.6589 33.4441 35.0892 37.2537C35.1425 37.7326 35.3722 38.1749 35.7341 38.4952C36.096 38.8155 36.5644 38.9912 37.0488 38.9882H37.2644C37.7781 38.9295 38.2476 38.6711 38.5706 38.2696C38.8936 37.868 39.0439 37.3558 38.9888 36.8445C38.5959 33.3291 37.2484 29.9863 35.0908 27.1745C32.9332 24.3627 30.0469 22.1879 26.7412 20.8832ZM19.4709 19.4995C17.9206 19.4995 16.4051 19.0423 15.1161 18.1857C13.8271 17.3291 12.8224 16.1116 12.2291 14.6872C11.6358 13.2627 11.4806 11.6953 11.783 10.1831C12.0855 8.67096 12.832 7.28193 13.9283 6.19171C15.0245 5.10149 16.4212 4.35904 17.9417 4.05825C19.4622 3.75746 21.0383 3.91184 22.4706 4.50186C23.9029 5.09188 25.1271 6.09105 25.9884 7.37302C26.8497 8.65498 27.3095 10.1622 27.3095 11.704C27.3095 13.7715 26.4836 15.7543 25.0136 17.2162C23.5436 18.6782 21.5498 19.4995 19.4709 19.4995Z" fill="#979797"/>
</svg>
