<svg width="47" height="47" viewBox="0 0 47 47" fill="none" xmlns="http://www.w3.org/2000/svg">
<path d="M7.45965 40.6973C8.36617 41.5947 9.59027 42.0981 10.8659 42.0981C12.1416 42.0981 13.3657 41.5947 14.2722 40.6973L15.2311 39.7369C16.0866 40.1709 16.9656 40.5406 17.8775 40.8367V42.1888C17.8832 43.463 18.392 44.6834 19.2931 45.5844C20.1943 46.4855 21.4148 46.9942 22.6892 47H24.3077C26.9494 47 29.1304 44.8302 29.1304 42.1888V40.8242C30.0372 40.5319 30.9194 40.1683 31.7689 39.7369L32.7278 40.6973C33.6343 41.5947 34.8584 42.0981 36.1341 42.0981C37.4097 42.0981 38.6338 41.5947 39.5404 40.6973L40.6967 39.5474C41.5942 38.6397 42.0975 37.4147 42.0975 36.1383C42.0975 34.8619 41.5942 33.6369 40.6967 32.7292L39.7378 31.7814C40.1718 30.926 40.5416 30.0455 40.8361 29.1337H42.1883C44.8315 29.1337 47 26.9514 47 24.31V22.6916C47 20.0502 44.8284 17.8694 42.1883 17.8694H40.8236C40.5314 16.9634 40.1683 16.0818 39.7378 15.2327L40.6967 14.2723C41.5942 13.3659 42.0976 12.1419 42.0976 10.8664C42.0976 9.59088 41.5942 8.3669 40.6967 7.46047L39.5404 6.30427C38.6338 5.40686 37.4097 4.90346 36.1341 4.90346C34.8584 4.90346 33.6343 5.40686 32.7278 6.30427L31.7689 7.26307C30.919 6.83273 30.0368 6.4692 29.1304 6.1758V4.8222C29.1226 3.54568 28.612 2.32367 27.7092 1.42102C26.8065 0.518366 25.5843 0.00780766 24.3077 0H22.6892C20.0475 0 17.8775 2.18237 17.8775 4.8222V6.16327C16.9656 6.45937 16.0834 6.82753 15.2311 7.2615L14.2722 6.3027C13.3657 5.40529 12.1416 4.90189 10.8659 4.90189C9.59027 4.90189 8.36617 5.40529 7.45965 6.3027L6.31273 7.46047C5.41675 8.36769 4.91433 9.59137 4.91433 10.8664C4.91433 12.1414 5.41675 13.3651 6.31273 14.2723L7.26066 15.2327C6.83079 16.0821 6.46776 16.9636 6.17485 17.8694H4.82112C3.54449 17.8768 2.32228 18.3873 1.4197 19.2901C0.517124 20.1928 0.0069908 21.4151 0 22.6916V24.31C0.00739361 25.5865 0.517606 26.8087 1.42005 27.7116C2.3225 28.6146 3.54447 29.1255 4.82112 29.1337H6.17485C6.47098 30.044 6.82665 30.9291 7.26066 31.7814L6.31273 32.7292C5.41598 33.6373 4.91314 34.8621 4.91314 36.1383C4.91314 37.4145 5.41598 38.6393 6.31273 39.5474L7.45965 40.6973ZM22.6892 3.13647H24.3077C25.2666 3.13647 25.9967 3.86497 25.9967 4.82533V7.20823C25.9981 7.55731 26.1159 7.89595 26.3317 8.17041C26.5474 8.44487 26.8486 8.63942 27.1875 8.7232C28.6535 9.08815 30.057 9.66894 31.3521 10.4465C31.6508 10.6254 32.0005 10.6996 32.3461 10.6576C32.6916 10.6157 33.0134 10.4598 33.2605 10.2147L34.9496 8.5258C35.1036 8.365 35.2885 8.23704 35.4933 8.14962C35.6981 8.0622 35.9185 8.01713 36.1411 8.01713C36.3638 8.01713 36.5842 8.0622 36.7889 8.14962C36.9937 8.23704 37.1787 8.365 37.3327 8.5258L38.4765 9.682C39.1549 10.3604 39.1549 11.374 38.4765 12.0524L36.8 13.7412C36.5501 13.9879 36.3905 14.3115 36.3467 14.6598C36.303 15.0082 36.3776 15.3611 36.5587 15.662C37.3397 16.9564 37.9238 18.3598 38.2916 19.8262C38.4687 20.5186 39.0922 21.0043 39.8067 21.0059H42.1899C43.1472 21.0059 43.8664 21.7344 43.8664 22.6947V24.3131C43.8664 25.2719 43.1472 26.002 42.1899 26.002H39.8067C39.4558 26.0011 39.1147 26.118 38.8381 26.3338C38.5614 26.5497 38.3651 26.8521 38.2806 27.1926C37.9158 28.6582 37.3344 30.0612 36.5556 31.3553C36.1921 31.9725 36.2892 32.759 36.7968 33.2635L38.4733 34.9523C38.6342 35.1063 38.7621 35.2913 38.8496 35.496C38.937 35.7008 38.9821 35.9211 38.9821 36.1438C38.9821 36.3664 38.937 36.5868 38.8496 36.7915C38.7621 36.9963 38.6342 37.1812 38.4733 37.3352L37.3296 38.4805C37.1756 38.6413 36.9906 38.7692 36.7858 38.8566C36.581 38.9441 36.3607 38.9891 36.138 38.9891C35.9153 38.9891 35.695 38.9441 35.4902 38.8566C35.2854 38.7692 35.1004 38.6413 34.9464 38.4805L33.2574 36.7916C33.0101 36.5467 32.6882 36.3911 32.3427 36.3494C31.9971 36.3077 31.6475 36.3823 31.349 36.5613C30.0536 37.3384 28.6501 37.9191 27.1844 38.2846C26.8434 38.3689 26.5406 38.5653 26.3247 38.8424C26.1087 39.1194 25.9921 39.4609 25.9936 39.8121V42.195C25.9979 42.4174 25.9571 42.6384 25.8736 42.8445C25.7901 43.0507 25.6656 43.2378 25.5077 43.3945C25.3498 43.5512 25.1618 43.6742 24.955 43.7562C24.7482 43.8382 24.5269 43.8773 24.3046 43.8714H22.686C22.4637 43.8773 22.2424 43.8382 22.0356 43.7562C21.8288 43.6742 21.6408 43.5512 21.4829 43.3945C21.325 43.2378 21.2005 43.0507 21.117 42.8445C21.0335 42.6384 20.9927 42.4174 20.997 42.195V39.8121C20.9991 39.4624 20.8841 39.122 20.6703 38.8452C20.4564 38.5683 20.1561 38.371 19.8172 38.2846C18.3517 37.9197 16.9487 37.3389 15.6541 36.5613C15.3543 36.3794 15.0021 36.3033 14.6539 36.345C14.3057 36.3868 13.9815 36.544 13.7332 36.7916L12.0567 38.4805C11.9027 38.6413 11.7177 38.7692 11.5129 38.8566C11.3082 38.9441 11.0878 38.9891 10.8651 38.9891C10.6425 38.9891 10.4221 38.9441 10.2173 38.8566C10.0125 38.7692 9.82758 38.6413 9.67357 38.4805L8.51725 37.3352C8.35644 37.1812 8.22846 36.9963 8.14103 36.7915C8.05361 36.5868 8.00853 36.3664 8.00853 36.1438C8.00853 35.9211 8.05361 35.7008 8.14103 35.496C8.22846 35.2913 8.35644 35.1063 8.51725 34.9523L10.2063 33.2635C10.451 33.016 10.6062 32.6941 10.6477 32.3486C10.6891 32.003 10.6143 31.6536 10.435 31.3553C9.65894 30.06 9.07818 28.6574 8.71154 27.1926C8.62724 26.8517 8.4308 26.5489 8.15376 26.333C7.87672 26.1171 7.53515 26.0005 7.18389 26.002H4.81485C4.59194 26.0062 4.37047 25.9654 4.16371 25.8821C3.95694 25.7987 3.76915 25.6744 3.61157 25.5167C3.454 25.359 3.32989 25.1711 3.24669 24.9643C3.16349 24.7575 3.12291 24.536 3.12738 24.3131V22.6947C3.12738 21.7359 4.08001 21.3114 4.81485 21.0059C5.54969 20.7019 7.19799 21.0059 7.19799 21.0059C7.91402 21.0043 8.53605 20.5186 8.71467 19.8262C9.07992 18.3605 9.66076 16.9571 10.4382 15.662C10.6197 15.3622 10.6958 15.0103 10.6544 14.6622C10.6129 14.3142 10.4563 13.99 10.2094 13.7412L8.51882 12.0524C8.35816 11.8996 8.23024 11.7157 8.14283 11.512C8.05542 11.3083 8.01035 11.0889 8.01035 10.8672C8.01035 10.6455 8.05542 10.4261 8.14283 10.2224C8.23024 10.0186 8.35816 9.83478 8.51882 9.682L9.67513 8.5258C9.82807 8.36511 10.0121 8.23717 10.216 8.14976C10.4198 8.06234 10.6394 8.01726 10.8612 8.01726C11.0831 8.01726 11.3026 8.06234 11.5065 8.14976C11.7104 8.23717 11.8944 8.36511 12.0473 8.5258L13.7363 10.2147C13.9843 10.4628 14.3084 10.6205 14.6567 10.6625C15.005 10.7045 15.3573 10.6285 15.6573 10.4465C16.9521 9.66948 18.3551 9.08872 19.8203 8.7232C20.1592 8.63713 20.4594 8.44011 20.6732 8.16355C20.8871 7.887 21.0021 7.54683 21.0001 7.19727V4.82533C21.0001 3.86497 21.7303 3.13647 22.6892 3.13647ZM23.5008 14.6201C18.6154 14.6201 14.6294 18.6183 14.6294 23.5016C14.6294 28.3849 18.6154 32.383 23.5008 32.383C28.3846 32.383 32.3831 28.3849 32.3831 23.5016C32.3831 18.6183 28.3846 14.6201 23.5008 14.6201ZM23.5008 17.7535C24.2565 17.7508 25.0052 17.8976 25.7039 18.1855C26.4026 18.4734 27.0374 18.8967 27.5717 19.431C28.1061 19.9653 28.5294 20.6001 28.8174 21.2987C29.1053 21.9973 29.2522 22.746 29.2495 23.5016C29.2522 24.2572 29.1053 25.0058 28.8174 25.7045C28.5294 26.4031 28.1061 27.0378 27.5717 27.5721C27.0374 28.1064 26.4026 28.5297 25.7039 28.8176C25.0052 29.1055 24.2565 29.2524 23.5008 29.2497C22.7457 29.2522 21.9977 29.1051 21.2998 28.817C20.6019 28.5288 19.968 28.1053 19.4347 27.5709C18.9014 27.0365 18.4792 26.4017 18.1926 25.7033C17.9059 25.0048 17.7605 24.2565 17.7646 23.5016C17.7607 22.7467 17.9063 21.9985 18.193 21.3001C18.4797 20.6018 18.9019 19.9671 19.4352 19.4327C19.9685 18.8983 20.6023 18.4748 21.3001 18.1866C21.9978 17.8984 22.7458 17.7512 23.5008 17.7535Z" fill="#979797"/>
</svg>
