<svg width="37" height="41" viewBox="0 0 37 41" fill="none" xmlns="http://www.w3.org/2000/svg">
<path d="M30.1068 13.8619C31.6089 13.863 33.0697 13.3648 34.2645 12.444C35.4593 11.5232 36.3219 10.2307 36.7195 8.7656C37.1171 7.30045 37.0278 5.74374 36.4651 4.335C35.9025 2.92625 34.8979 1.74352 33.6057 0.968785C32.3136 0.19405 30.8055 -0.129765 29.3137 0.0471648C27.8218 0.224094 26.4287 0.891965 25.3488 1.94802C24.2689 3.00407 23.5619 4.38978 23.3368 5.89196C23.1116 7.39413 23.3806 8.92953 24.1025 10.2619L12.2497 16.5132C11.3777 15.3795 10.1787 14.5481 8.81879 14.1343C7.4589 13.7204 6.00543 13.7446 4.6597 14.2033C3.31397 14.6621 2.14259 15.5328 1.30779 16.6948C0.472996 17.8568 0.0161107 19.2526 0.000418214 20.6889C-0.0152743 22.1253 0.411003 23.531 1.22021 24.7114C2.02941 25.8917 3.18149 26.7884 4.51686 27.2771C5.85224 27.7659 7.30483 27.8225 8.67342 27.4391C10.042 27.0557 11.2589 26.2514 12.1555 25.1375L23.8223 31.2729C23.1258 32.892 23.0645 34.7185 23.6507 36.3817C24.2369 38.0449 25.4267 39.4202 26.9787 40.2286C28.5308 41.0369 30.3287 41.2178 32.0077 40.7343C33.6867 40.2509 35.121 39.1395 36.0195 37.6256C36.918 36.1118 37.2134 34.3088 36.8458 32.5827C36.4782 30.8565 35.4751 29.3365 34.0401 28.3311C32.605 27.3256 30.8456 26.9101 29.1187 27.1687C27.3918 27.4274 25.8269 28.3409 24.7416 29.7239L13.0953 23.5994C13.4816 22.7315 13.6865 21.7922 13.6971 20.8404C13.7078 19.8887 13.524 18.945 13.1573 18.0684L25.1731 11.7311C25.8106 12.4049 26.5764 12.941 27.4244 13.3072C28.2723 13.6735 29.1848 13.8622 30.1068 13.8619Z" fill="#979797"/>
</svg>
